{"glyphs":{"0":{"ha":949,"x_min":54,"x_max":868,"o":"m 54 0 l 54 1085 l 190 949 l 190 136 l 54 0 m 732 136 l 732 949 l 868 1085 l 868 0 l 732 136 m 54 1085 l 326 1085 l 461 1004 l 597 1085 l 868 1085 l 732 949 l 597 949 l 461 868 l 326 949 l 190 949 l 54 1085 m 190 136 l 326 136 l 461 217 l 597 136 l 732 136 l 868 0 l 597 0 l 461 81 l 326 0 l 54 0 l 190 136 z "},"1":{"ha":515,"x_min":27,"x_max":434,"o":"m 298 1085 l 434 1085 l 434 0 l 298 0 l 298 949 l 163 814 l 27 949 l 27 1085 l 163 949 l 298 1085 z "},"2":{"ha":949,"x_min":54,"x_max":868,"o":"m 190 136 l 868 136 l 868 0 l 54 0 l 54 136 l 136 307 l 54 475 l 54 610 l 732 610 l 732 949 l 597 949 l 461 868 l 326 949 l 190 949 l 54 1085 l 326 1085 l 461 1004 l 597 1085 l 868 1085 l 868 475 l 190 475 l 271 307 l 190 136 z "},"3":{"ha":922,"x_min":27,"x_max":841,"o":"m 163 136 l 705 136 l 705 407 l 298 543 l 705 678 l 705 949 l 163 949 l 27 1085 l 841 1085 l 841 678 l 705 543 l 841 407 l 841 0 l 27 0 l 163 136 z "},"4":{"ha":949,"x_min":54,"x_max":868,"o":"m 732 610 l 732 1085 l 868 1085 l 868 475 l 787 307 l 868 136 l 868 0 l 732 0 l 732 136 l 651 307 l 732 475 l 54 475 l 54 610 l 136 781 l 54 949 l 54 1085 l 190 1085 l 190 949 l 271 781 l 190 610 l 732 610 z "},"5":{"ha":949,"x_min":54,"x_max":868,"o":"m 651 307 l 732 475 l 54 475 l 54 1085 l 326 1085 l 461 1004 l 597 1085 l 868 1085 l 732 949 l 597 949 l 461 868 l 326 949 l 190 949 l 190 610 l 868 610 l 868 475 l 787 307 l 868 136 l 868 0 l 54 0 l 54 136 l 732 136 l 651 307 z "},"6":{"ha":949,"x_min":54,"x_max":868,"o":"m 54 949 l 54 1085 l 868 1085 l 868 949 l 190 949 l 271 781 l 190 610 l 868 610 l 868 0 l 54 0 l 54 610 l 136 781 l 54 949 m 732 475 l 190 475 l 190 136 l 732 136 l 732 475 z "},"7":{"ha":949,"x_min":54,"x_max":868,"o":"m 732 949 l 54 949 l 54 1085 l 868 1085 l 868 949 l 597 814 l 461 0 l 326 0 l 461 814 l 732 949 z "},"8":{"ha":949,"x_min":54,"x_max":868,"o":"m 461 136 l 732 136 l 732 407 l 461 543 l 732 678 l 732 949 l 461 949 l 326 1085 l 868 1085 l 868 678 l 732 543 l 868 407 l 868 0 l 326 0 l 461 136 m 597 0 l 54 0 l 54 407 l 190 543 l 54 678 l 54 1085 l 597 1085 l 461 949 l 190 949 l 190 678 l 461 543 l 190 407 l 190 136 l 461 136 l 597 0 z "},"9":{"ha":949,"x_min":54,"x_max":868,"o":"m 868 136 l 868 0 l 54 0 l 54 136 l 732 136 l 651 304 l 732 475 l 54 475 l 54 1085 l 868 1085 l 868 475 l 787 304 l 868 136 m 190 610 l 732 610 l 732 949 l 190 949 l 190 610 z "},"\u0000":{"ha":0,"x_min":0,"x_max":0,"o":""}," ":{"ha":678,"x_min":0,"x_max":0,"o":""},"A":{"ha":1166,"x_min":27,"x_max":1112,"o":"m 827 407 l 944 339 l 1112 0 l 977 0 l 808 339 l 692 407 l 741 475 l 570 814 l 401 475 l 448 407 l 334 339 l 163 0 l 27 0 l 198 339 l 312 407 l 266 475 l 570 1085 l 876 475 l 827 407 z "},"B":{"ha":1004,"x_min":54,"x_max":949,"o":"m 868 610 l 868 475 l 54 475 l 54 610 l 868 610 m 190 136 l 54 136 l 54 475 l 190 475 l 190 136 m 868 136 l 868 0 l 54 0 l 54 136 l 868 136 m 732 949 l 868 949 l 868 610 l 732 610 l 732 949 m 54 949 l 190 949 l 271 781 l 190 610 l 54 610 l 136 781 l 54 949 m 54 949 l 54 1085 l 868 1085 l 868 949 l 54 949 m 732 475 l 868 475 l 949 307 l 868 136 l 732 136 l 814 307 l 732 475 z "},"C":{"ha":1004,"x_min":54,"x_max":949,"o":"m 949 0 l 54 0 l 54 407 l 136 543 l 54 678 l 54 1085 l 949 1085 l 814 949 l 190 949 l 190 678 l 271 543 l 190 407 l 190 136 l 814 136 l 949 0 z "},"D":{"ha":1031,"x_min":54,"x_max":949,"o":"m 54 1085 l 949 1085 l 949 0 l 54 0 l 54 407 l 136 543 l 54 678 l 54 1085 m 190 949 l 190 678 l 271 543 l 190 407 l 190 136 l 814 136 l 814 949 l 190 949 z "},"E":{"ha":1004,"x_min":54,"x_max":949,"o":"m 949 0 l 54 0 l 54 407 l 190 543 l 54 678 l 54 1085 l 949 1085 l 814 949 l 190 949 l 190 678 l 678 543 l 190 407 l 190 136 l 814 136 l 949 0 z "},"F":{"ha":1004,"x_min":54,"x_max":949,"o":"m 54 0 l 54 407 l 190 543 l 54 678 l 54 1085 l 949 1085 l 814 949 l 190 949 l 190 678 l 678 543 l 190 407 l 190 136 l 54 0 z "},"G":{"ha":1221,"x_min":54,"x_max":1139,"o":"m 977 1085 l 974 1082 q 841 949 974 1080 l 190 949 l 190 136 l 1004 136 l 841 339 l 1004 543 l 1139 543 l 977 339 l 1139 136 l 1139 0 l 54 0 l 54 1085 l 977 1085 z "},"H":{"ha":1058,"x_min":54,"x_max":977,"o":"m 54 0 l 54 1085 l 190 1085 l 190 0 l 54 0 m 841 0 l 841 1085 l 977 1085 l 977 0 l 841 0 m 54 610 l 448 610 l 515 529 l 583 610 l 977 610 l 841 475 l 583 475 l 515 393 l 448 475 l 190 475 l 54 610 z "},"I":{"ha":407,"x_min":27,"x_max":326,"o":"m 244 1085 l 244 882 l 163 814 l 244 746 l 244 339 l 326 271 l 244 203 l 244 0 l 109 0 l 109 203 l 190 271 l 109 339 l 109 746 l 27 814 l 109 882 l 109 1085 l 244 1085 z "},"J":{"ha":814,"x_min":54,"x_max":732,"o":"m 597 1085 l 732 1085 l 732 0 l 54 0 l 54 203 l 136 271 l 54 339 l 54 407 l 190 407 l 190 339 l 271 271 l 190 203 l 190 136 l 597 136 l 597 1085 z "},"K":{"ha":922,"x_min":54,"x_max":868,"o":"m 461 906 l 678 1085 l 868 1085 l 461 732 l 461 906 m 461 732 l 393 591 l 326 613 l 326 792 l 393 768 l 461 906 l 461 732 m 326 613 l 244 543 l 326 472 l 326 293 l 190 407 l 190 0 l 54 0 l 54 1085 l 190 1085 l 190 678 l 326 792 l 326 613 m 461 355 l 868 0 l 678 0 l 461 179 l 461 355 m 461 179 l 393 317 l 326 293 l 326 472 l 393 494 l 461 355 l 461 179 z "},"L":{"ha":922,"x_min":54,"x_max":868,"o":"m 190 1085 l 190 339 l 271 271 l 190 203 l 190 136 l 732 136 l 868 0 l 54 0 l 54 203 l 136 271 l 54 339 l 54 1085 l 190 1085 z "},"M":{"ha":1221,"x_min":54,"x_max":1139,"o":"m 54 1085 l 488 1085 l 597 814 l 705 1085 l 1139 1085 l 1139 0 l 1004 0 l 1004 949 l 787 949 l 597 543 l 407 949 l 190 949 l 190 0 l 54 0 l 54 1085 z "},"N":{"ha":949,"x_min":54,"x_max":868,"o":"m 54 0 l 54 1085 l 190 949 l 190 0 l 54 0 m 732 136 l 732 1085 l 868 1085 l 868 0 l 732 136 m 393 475 l 393 610 l 529 610 l 529 475 l 393 475 m 529 475 l 529 610 l 732 339 l 732 203 l 529 475 m 190 746 l 190 882 l 393 610 l 393 475 l 190 746 z "},"O":{"ha":1004,"x_min":54,"x_max":922,"o":"m 54 0 l 54 407 l 136 543 l 54 678 l 54 1085 l 190 949 l 190 678 l 271 543 l 190 407 l 190 136 l 54 0 m 787 136 l 787 407 l 705 543 l 787 678 l 787 949 l 922 1085 l 922 678 l 841 543 l 922 407 l 922 0 l 787 136 m 54 1085 l 353 1085 l 488 1004 l 624 1085 l 922 1085 l 787 949 l 624 949 l 488 868 l 353 949 l 190 949 l 54 1085 m 190 136 l 787 136 l 922 0 l 54 0 l 190 136 z "},"P":{"ha":949,"x_min":54,"x_max":868,"o":"m 868 1085 l 868 678 l 597 543 l 326 543 l 732 678 l 732 949 l 190 949 l 190 0 l 54 0 l 54 1085 l 868 1085 z "},"Q":{"ha":1004,"x_min":54,"x_max":922,"o":"m 922 1085 l 922 678 l 841 543 l 922 407 l 922 0 l 787 136 l 787 407 l 705 543 l 787 678 l 787 949 l 190 949 l 190 678 l 271 543 l 190 407 l 190 136 l 515 136 l 787 -27 l 787 -163 l 515 0 l 54 0 l 54 407 l 136 543 l 54 678 l 54 1085 l 922 1085 z "},"R":{"ha":949,"x_min":54,"x_max":868,"o":"m 54 1085 l 868 1085 l 868 678 l 597 543 l 868 407 l 868 0 l 732 136 l 732 407 l 326 543 l 732 678 l 732 949 l 190 949 l 190 0 l 54 0 l 54 1085 z "},"S":{"ha":1221,"x_min":54,"x_max":1139,"o":"m 692 543 l 884 442 l 917 339 l 1028 239 l 1139 136 l 1139 0 l 190 0 l 54 136 l 949 136 l 838 239 l 727 339 l 694 442 l 502 543 l 692 543 m 502 543 l 309 646 l 279 746 l 165 849 l 54 949 l 54 1085 l 1004 1085 l 1139 949 l 244 949 l 355 849 l 469 746 l 499 646 l 692 543 l 502 543 z "},"T":{"ha":814,"x_min":54,"x_max":732,"o":"m 407 949 l 54 949 l 54 1085 l 732 1085 l 732 949 l 543 949 l 461 814 l 461 0 l 326 0 l 326 814 l 407 949 z "},"U":{"ha":949,"x_min":54,"x_max":868,"o":"m 190 1085 l 190 339 l 271 271 l 190 203 l 190 136 l 54 0 l 54 203 l 136 271 l 54 339 l 54 1085 l 190 1085 m 868 1085 l 868 339 l 787 271 l 868 203 l 868 0 l 54 0 l 190 136 l 732 136 l 732 203 l 651 271 l 732 339 l 732 1085 l 868 1085 z "},"V":{"ha":1166,"x_min":27,"x_max":1112,"o":"m 876 610 l 570 0 l 266 610 l 312 678 l 198 746 l 27 1085 l 163 1085 l 334 746 l 448 678 l 401 610 l 570 271 l 741 610 l 692 678 l 808 746 l 977 1085 l 1112 1085 l 944 746 l 827 678 l 876 610 z "},"W":{"ha":1411,"x_min":27,"x_max":1356,"o":"m 876 610 l 570 0 l 266 610 l 312 678 l 198 746 l 27 1085 l 163 1085 l 334 746 l 448 678 l 401 610 l 570 271 l 741 610 l 692 678 l 827 678 l 876 610 m 1120 610 l 814 0 l 510 610 l 556 678 l 692 678 l 646 610 l 814 271 l 985 610 l 936 678 l 1053 746 l 1221 1085 l 1356 1085 l 1188 746 l 1072 678 l 1120 610 z "},"X":{"ha":1004,"x_min":54,"x_max":922,"o":"m 54 1085 l 190 1085 l 298 678 l 488 543 l 298 407 l 190 0 l 54 0 l 163 407 l 298 543 l 163 678 l 54 1085 m 814 678 l 678 543 l 814 407 l 922 0 l 787 0 l 678 407 l 488 543 l 678 678 l 787 1085 l 922 1085 l 814 678 z "},"Y":{"ha":949,"x_min":27,"x_max":895,"o":"m 27 1085 l 163 1085 l 271 678 l 461 543 l 529 407 l 529 0 l 393 0 l 393 407 l 271 543 l 136 678 l 27 1085 m 787 678 l 651 543 l 529 407 l 529 0 l 393 0 l 393 407 l 461 543 l 651 678 l 760 1085 l 895 1085 l 787 678 z "},"Z":{"ha":1221,"x_min":54,"x_max":1139,"o":"m 692 543 l 499 442 l 469 339 l 355 239 l 244 136 l 1004 136 l 1139 0 l 54 0 l 54 136 l 165 239 l 279 339 l 309 442 l 502 543 l 692 543 m 502 543 l 694 646 l 727 746 l 838 849 l 949 949 l 190 949 l 54 1085 l 1139 1085 l 1139 949 l 1028 849 l 917 746 l 884 646 l 692 543 l 502 543 z "},"a":{"ha":876,"x_min":22,"x_max":836,"o":"m 621 307 l 711 255 l 836 0 l 735 0 l 608 255 l 521 307 l 556 355 l 429 610 l 304 355 l 336 307 l 252 255 l 125 0 l 22 0 l 149 255 l 236 307 l 201 355 l 429 814 l 659 355 l 621 307 z "},"b":{"ha":754,"x_min":41,"x_max":713,"o":"m 651 458 l 651 355 l 41 355 l 41 458 l 651 458 m 144 103 l 41 103 l 41 355 l 144 355 l 144 103 m 651 103 l 651 0 l 41 0 l 41 103 l 651 103 m 551 713 l 651 713 l 651 458 l 551 458 l 551 713 m 41 713 l 144 713 l 203 586 l 144 458 l 41 458 l 103 586 l 41 713 m 41 713 l 41 814 l 651 814 l 651 713 l 41 713 m 551 355 l 651 355 l 713 231 l 651 103 l 551 103 l 610 231 l 551 355 z "},"c":{"ha":754,"x_min":41,"x_max":713,"o":"m 713 0 l 41 0 l 41 307 l 103 407 l 41 510 l 41 814 l 713 814 l 610 713 l 144 713 l 144 510 l 203 407 l 144 307 l 144 103 l 610 103 l 713 0 z "},"d":{"ha":776,"x_min":41,"x_max":713,"o":"m 41 814 l 713 814 l 713 0 l 41 0 l 41 307 l 103 407 l 41 510 l 41 814 m 144 713 l 144 510 l 203 407 l 144 307 l 144 103 l 610 103 l 610 713 l 144 713 z "},"e":{"ha":754,"x_min":41,"x_max":713,"o":"m 713 0 l 41 0 l 41 307 l 144 407 l 41 510 l 41 814 l 713 814 l 610 713 l 144 713 l 144 510 l 510 407 l 144 307 l 144 103 l 610 103 l 713 0 z "},"f":{"ha":754,"x_min":41,"x_max":713,"o":"m 41 0 l 41 307 l 144 407 l 41 510 l 41 814 l 713 814 l 610 713 l 144 713 l 144 510 l 510 407 l 144 307 l 144 103 l 41 0 z "},"g":{"ha":917,"x_min":41,"x_max":854,"o":"m 732 814 l 730 811 q 632 713 730 811 l 144 713 l 144 103 l 754 103 l 632 255 l 754 407 l 854 407 l 732 255 l 854 103 l 854 0 l 41 0 l 41 814 l 732 814 z "},"h":{"ha":795,"x_min":41,"x_max":732,"o":"m 41 0 l 41 814 l 144 814 l 144 0 l 41 0 m 632 0 l 632 814 l 732 814 l 732 0 l 632 0 m 41 458 l 336 458 l 388 396 l 437 458 l 732 458 l 632 355 l 437 355 l 388 296 l 336 355 l 144 355 l 41 458 z "},"i":{"ha":309,"x_min":22,"x_max":247,"o":"m 184 814 l 184 662 l 125 610 l 184 559 l 184 255 l 247 203 l 184 152 l 184 0 l 84 0 l 84 152 l 144 203 l 84 255 l 84 559 l 22 610 l 84 662 l 84 814 l 184 814 z "},"j":{"ha":613,"x_min":41,"x_max":551,"o":"m 448 814 l 551 814 l 551 0 l 41 0 l 41 152 l 103 203 l 41 255 l 41 307 l 144 307 l 144 255 l 203 203 l 144 152 l 144 103 l 448 103 l 448 814 z "},"k":{"ha":692,"x_min":41,"x_max":651,"o":"m 347 678 l 510 814 l 651 814 l 347 548 l 347 678 m 347 548 l 296 442 l 244 461 l 244 594 l 296 575 l 347 678 l 347 548 m 244 461 l 184 407 l 244 355 l 244 220 l 144 307 l 144 0 l 41 0 l 41 814 l 144 814 l 144 510 l 244 594 l 244 461 m 347 266 l 651 0 l 510 0 l 347 136 l 347 266 m 347 136 l 296 239 l 244 220 l 244 355 l 296 372 l 347 266 l 347 136 z "},"l":{"ha":692,"x_min":41,"x_max":651,"o":"m 144 814 l 144 255 l 203 203 l 144 152 l 144 103 l 551 103 l 651 0 l 41 0 l 41 152 l 103 203 l 41 255 l 41 814 l 144 814 z "},"m":{"ha":917,"x_min":41,"x_max":854,"o":"m 41 814 l 366 814 l 448 610 l 529 814 l 854 814 l 854 0 l 754 0 l 754 713 l 591 713 l 448 407 l 307 713 l 144 713 l 144 0 l 41 0 l 41 814 z "},"n":{"ha":713,"x_min":41,"x_max":651,"o":"m 41 0 l 41 814 l 144 713 l 144 0 l 41 0 m 551 103 l 551 814 l 651 814 l 651 0 l 551 103 m 296 358 l 296 458 l 399 458 l 399 358 l 296 358 m 399 358 l 399 458 l 551 255 l 551 155 l 399 358 m 144 562 l 144 662 l 296 458 l 296 358 l 144 562 z "},"o":{"ha":754,"x_min":41,"x_max":692,"o":"m 41 0 l 41 307 l 103 407 l 41 510 l 41 814 l 144 713 l 144 510 l 203 407 l 144 307 l 144 103 l 41 0 m 591 103 l 591 307 l 529 407 l 591 510 l 591 713 l 692 814 l 692 510 l 632 407 l 692 307 l 692 0 l 591 103 m 41 814 l 266 814 l 366 754 l 469 814 l 692 814 l 591 713 l 469 713 l 366 651 l 266 713 l 144 713 l 41 814 m 144 103 l 591 103 l 692 0 l 41 0 l 144 103 z "},"p":{"ha":713,"x_min":41,"x_max":651,"o":"m 651 814 l 651 510 l 448 407 l 244 407 l 551 510 l 551 713 l 144 713 l 144 0 l 41 0 l 41 814 l 651 814 z "},"q":{"ha":754,"x_min":41,"x_max":692,"o":"m 692 814 l 692 510 l 632 407 l 692 307 l 692 0 l 591 103 l 591 307 l 529 407 l 591 510 l 591 713 l 144 713 l 144 510 l 203 407 l 144 307 l 144 103 l 388 103 l 591 -19 l 591 -122 l 388 0 l 41 0 l 41 307 l 103 407 l 41 510 l 41 814 l 692 814 z "},"r":{"ha":713,"x_min":41,"x_max":651,"o":"m 41 814 l 651 814 l 651 510 l 448 407 l 651 307 l 651 0 l 551 103 l 551 307 l 244 407 l 551 510 l 551 713 l 144 713 l 144 0 l 41 0 l 41 814 z "},"s":{"ha":917,"x_min":41,"x_max":854,"o":"m 518 407 l 665 331 l 686 255 l 770 179 l 854 103 l 854 0 l 144 0 l 41 103 l 713 103 l 629 179 l 545 255 l 521 331 l 377 407 l 518 407 m 377 407 l 231 483 l 209 559 l 125 635 l 41 713 l 41 814 l 754 814 l 854 713 l 184 713 l 266 635 l 350 559 l 374 483 l 518 407 l 377 407 z "},"t":{"ha":613,"x_min":41,"x_max":551,"o":"m 307 713 l 41 713 l 41 814 l 551 814 l 551 713 l 407 713 l 347 610 l 347 0 l 244 0 l 244 610 l 307 713 z "},"u":{"ha":713,"x_min":41,"x_max":651,"o":"m 144 814 l 144 255 l 203 203 l 144 152 l 144 103 l 41 0 l 41 152 l 103 203 l 41 255 l 41 814 l 144 814 m 651 814 l 651 255 l 591 203 l 651 152 l 651 0 l 41 0 l 144 103 l 551 103 l 551 152 l 488 203 l 551 255 l 551 814 l 651 814 z "},"v":{"ha":876,"x_min":22,"x_max":836,"o":"m 659 458 l 429 0 l 201 458 l 236 510 l 149 559 l 22 814 l 125 814 l 252 559 l 336 510 l 304 458 l 429 203 l 556 458 l 521 510 l 608 559 l 735 814 l 836 814 l 711 559 l 621 510 l 659 458 z "},"w":{"ha":1061,"x_min":22,"x_max":1020,"o":"m 659 458 l 429 0 l 201 458 l 236 510 l 149 559 l 22 814 l 125 814 l 252 559 l 336 510 l 304 458 l 429 203 l 556 458 l 521 510 l 621 510 l 659 458 m 841 458 l 613 0 l 385 458 l 418 510 l 521 510 l 486 458 l 613 203 l 741 458 l 703 510 l 792 559 l 917 814 l 1020 814 l 892 559 l 806 510 l 841 458 z "},"x":{"ha":754,"x_min":41,"x_max":692,"o":"m 41 814 l 144 814 l 225 510 l 366 407 l 225 307 l 144 0 l 41 0 l 122 307 l 222 407 l 122 510 l 41 814 m 610 510 l 510 407 l 610 307 l 692 0 l 591 0 l 510 307 l 366 407 l 510 510 l 591 814 l 692 814 l 610 510 z "},"y":{"ha":713,"x_min":22,"x_max":673,"o":"m 22 814 l 125 814 l 206 510 l 347 407 l 399 307 l 399 0 l 296 0 l 296 307 l 203 407 l 103 510 l 22 814 m 591 510 l 491 407 l 399 307 l 399 0 l 296 0 l 296 307 l 347 407 l 491 510 l 572 814 l 673 814 l 591 510 z "},"z":{"ha":917,"x_min":41,"x_max":854,"o":"m 518 407 l 374 331 l 350 255 l 266 179 l 184 103 l 754 103 l 854 0 l 41 0 l 41 103 l 125 179 l 209 255 l 231 331 l 377 407 l 518 407 m 377 407 l 521 483 l 545 559 l 629 635 l 713 713 l 144 713 l 41 814 l 854 814 l 854 713 l 770 635 l 686 559 l 665 483 l 518 407 l 377 407 z "}}}
